<?xml version="1.0" encoding="UTF-8" standalone="no"?>
<svg
   width="250"
   height="250"
   viewBox="0 0 250 250"
   version="1.1"
   id="svg6"
   sodipodi:docname="generated_019d06f8-9fb6-7763-8a53-e586acea0678.svg"
   inkscape:version="1.4.2 (f4327f4, 2025-05-13)"
   xmlns:inkscape="http://www.inkscape.org/namespaces/inkscape"
   xmlns:sodipodi="http://sodipodi.sourceforge.net/DTD/sodipodi-0.dtd"
   xmlns="http://www.w3.org/2000/svg"
   xmlns:svg="http://www.w3.org/2000/svg">
  <defs
     id="defs6" />
  <sodipodi:namedview
     id="namedview6"
     pagecolor="#ffffff"
     bordercolor="#000000"
     borderopacity="0.25"
     inkscape:showpageshadow="2"
     inkscape:pageopacity="0.0"
     inkscape:pagecheckerboard="0"
     inkscape:deskcolor="#d1d1d1"
     inkscape:zoom="1.6574583"
     inkscape:cx="32.580005"
     inkscape:cy="149.62669"
     inkscape:window-width="1440"
     inkscape:window-height="830"
     inkscape:window-x="-6"
     inkscape:window-y="-6"
     inkscape:window-maximized="1"
     inkscape:current-layer="svg6" />
  <!-- SVG created with Arrow, by QuiverAI (https://quiver.ai) -->
  <path
     d="m 115,21.01 c -5.2,0.45 -10.28,1.34 -15.14,2.65 L 99.81,23.57 C 82.72,28.01 67.96,36.48 56.34,47.83 l 0.1,0.1 C 39.871788,61.539603 29.436005,85.121506 26.78,91.61 l 15.45,4.37 C 55.51,63.11 85.3,37.81 118.82,37.71 h 11.19 c 34.18,1.81 66,25.12 78.21,61.39 l -23.4,10.61 41.91,16.59 17.08,-41.39 -20.07,8.5 C 212.92,61.18 186.56,27.27 134.43,21.14 V 21 h -1.14 c -2.52,-0.25 -5.12,-0.27 -7.73,-0.29 h -3.5 c -2.37,0 -4.74,0.08 -7.06,0.3 z"
     fill="#000000"
     id="path1"
     sodipodi:nodetypes="ccccccccccccccccccsc" />
  <path
     d="m 207.6,154 c -12.34,32.81 -40.57,57.72 -83.34,57.91 -36.51,0.16 -68.23,-22.82 -83.02,-61.6 L 64.64,140.3 22.15,123.68 6,165.57 25.7,156.95 c 9.73,29.86 32.71,54.32 64.13,65.68 l -0.02,0.08 c 10.82,3.56 21.52,5.22 32.81,4.99 6.19,-0.13 12.21,-0.87 18.03,-1.9 l -0.04,-0.12 c 45.0383,-8.52514 58.06641,-33.13416 81.72,-66.77 z"
     fill="#000000"
     id="path2"
     sodipodi:nodetypes="cccccccccccccc" />
  <path
     d="m192.2 45.81c0 7.27 4.74 12.38 10.7 12.38-2.69-3.72-6.1-8.07-10.7-12.38z"
     fill="#343434"
     opacity=".8"
     id="path4" />
</svg>
